<?xml version="1.0" encoding="UTF-8" standalone="no"?>
<!DOCTYPE svg PUBLIC "-//W3C//DTD SVG 1.1//EN"
 "http://www.w3.org/Graphics/SVG/1.1/DTD/svg11.dtd">
<!-- Generated by graphviz version 12.2.1 (20241206.2353)
 -->
<!-- Title: DreamTripSequence Pages: 1 -->
<svg width="463pt" height="613pt"
 viewBox="0.00 0.00 462.70 612.95" xmlns="http://www.w3.org/2000/svg" xmlns:xlink="http://www.w3.org/1999/xlink">
<g id="graph0" class="graph" transform="scale(1 1) rotate(0) translate(21.6 591.35)">
<title>DreamTripSequence</title>
<polygon fill="white" stroke="none" points="-21.6,21.6 -21.6,-591.35 441.1,-591.35 441.1,21.6 -21.6,21.6"/>
<text text-anchor="middle" x="209.75" y="-545.8" font-family="Helvetica,sans-Serif" font-size="21.00">DreamTrip — End&#45;to&#45;End Agent Sequence</text>
<!-- request -->
<g id="node1" class="node">
<title>request</title>
<path fill="#dbeafe" stroke="#334155" d="M287.27,-540C287.27,-540 132.23,-540 132.23,-540 126.23,-540 120.23,-534 120.23,-528 120.23,-528 120.23,-516 120.23,-516 120.23,-510 126.23,-504 132.23,-504 132.23,-504 287.27,-504 287.27,-504 293.27,-504 299.27,-510 299.27,-516 299.27,-516 299.27,-528 299.27,-528 299.27,-534 293.27,-540 287.27,-540"/>
<text text-anchor="middle" x="209.75" y="-518.12" font-family="Helvetica,sans-Serif" font-size="10.00">1 &#160;Traveler starts a plan in Streamlit</text>
</g>
<!-- load -->
<g id="node2" class="node">
<title>load</title>
<path fill="#f8fafc" stroke="#334155" d="M294.39,-468C294.39,-468 125.11,-468 125.11,-468 119.11,-468 113.11,-462 113.11,-456 113.11,-456 113.11,-444 113.11,-444 113.11,-438 119.11,-432 125.11,-432 125.11,-432 294.39,-432 294.39,-432 300.39,-432 306.39,-438 306.39,-444 306.39,-444 306.39,-456 306.39,-456 306.39,-462 300.39,-468 294.39,-468"/>
<text text-anchor="middle" x="209.75" y="-446.12" font-family="Helvetica,sans-Serif" font-size="10.00">2 &#160;Coordinator loads travel_options.csv</text>
</g>
<!-- request&#45;&gt;load -->
<g id="edge1" class="edge">
<title>request&#45;&gt;load</title>
<path fill="none" stroke="#475569" stroke-width="1.3" d="M209.75,-503.7C209.75,-496.49 209.75,-487.93 209.75,-479.82"/>
<polygon fill="#475569" stroke="#475569" stroke-width="1.3" points="213.25,-480.07 209.75,-470.07 206.25,-480.07 213.25,-480.07"/>
</g>
<!-- concierge -->
<g id="node3" class="node">
<title>concierge</title>
<path fill="#f8fafc" stroke="#334155" d="M329.27,-396C329.27,-396 90.23,-396 90.23,-396 84.23,-396 78.23,-390 78.23,-384 78.23,-384 78.23,-372 78.23,-372 78.23,-366 84.23,-360 90.23,-360 90.23,-360 329.27,-360 329.27,-360 335.27,-360 341.27,-366 341.27,-372 341.27,-372 341.27,-384 341.27,-384 341.27,-390 335.27,-396 329.27,-396"/>
<text text-anchor="middle" x="209.75" y="-374.88" font-family="Helvetica,sans-Serif" font-size="10.00">3 &#160;A2A → LangChain Concierge filters and summarizes</text>
</g>
<!-- load&#45;&gt;concierge -->
<g id="edge2" class="edge">
<title>load&#45;&gt;concierge</title>
<path fill="none" stroke="#475569" stroke-width="1.3" d="M209.75,-431.7C209.75,-424.49 209.75,-415.93 209.75,-407.82"/>
<polygon fill="#475569" stroke="#475569" stroke-width="1.3" points="213.25,-408.07 209.75,-398.07 206.25,-408.07 213.25,-408.07"/>
</g>
<!-- committee -->
<g id="node4" class="node">
<title>committee</title>
<path fill="#f8fafc" stroke="#334155" d="M340.14,-324C340.14,-324 79.36,-324 79.36,-324 73.36,-324 67.35,-318 67.35,-312 67.35,-312 67.35,-300 67.35,-300 67.35,-294 73.35,-288 79.35,-288 79.35,-288 340.14,-288 340.14,-288 346.14,-288 352.14,-294 352.14,-300 352.14,-300 352.14,-312 352.14,-312 352.14,-318 346.14,-324 340.14,-324"/>
<text text-anchor="middle" x="209.75" y="-302.88" font-family="Helvetica,sans-Serif" font-size="10.00">4 &#160;A2A → CrewAI Committee debates budget vs experience</text>
</g>
<!-- concierge&#45;&gt;committee -->
<g id="edge3" class="edge">
<title>concierge&#45;&gt;committee</title>
<path fill="none" stroke="#475569" stroke-width="1.3" d="M209.75,-359.7C209.75,-352.49 209.75,-343.93 209.75,-335.82"/>
<polygon fill="#475569" stroke="#475569" stroke-width="1.3" points="213.25,-336.07 209.75,-326.07 206.25,-336.07 213.25,-336.07"/>
</g>
<!-- consensus -->
<g id="node5" class="node">
<title>consensus</title>
<path fill="#dcfce7" stroke="#334155" d="M322.14,-252C322.14,-252 97.35,-252 97.35,-252 91.35,-252 85.35,-246 85.35,-240 85.35,-240 85.35,-228 85.35,-228 85.35,-222 91.35,-216 97.35,-216 97.35,-216 322.14,-216 322.14,-216 328.14,-216 334.14,-222 334.14,-228 334.14,-228 334.14,-240 334.14,-240 334.14,-246 328.14,-252 322.14,-252"/>
<text text-anchor="middle" x="209.75" y="-230.12" font-family="Helvetica,sans-Serif" font-size="10.00">5 &#160;Committee returns narrative + structured itinerary</text>
</g>
<!-- committee&#45;&gt;consensus -->
<g id="edge4" class="edge">
<title>committee&#45;&gt;consensus</title>
<path fill="none" stroke="#475569" stroke-width="1.3" d="M209.75,-287.7C209.75,-280.49 209.75,-271.93 209.75,-263.82"/>
<polygon fill="#475569" stroke="#475569" stroke-width="1.3" points="213.25,-264.07 209.75,-254.07 206.25,-264.07 213.25,-264.07"/>
</g>
<!-- artist -->
<g id="node6" class="node">
<title>artist</title>
<path fill="#f8fafc" stroke="#334155" d="M307.14,-180C307.14,-180 112.36,-180 112.36,-180 106.36,-180 100.36,-174 100.36,-168 100.36,-168 100.36,-156 100.36,-156 100.36,-150 106.36,-144 112.36,-144 112.36,-144 307.14,-144 307.14,-144 313.14,-144 319.14,-150 319.14,-156 319.14,-156 319.14,-168 319.14,-168 319.14,-174 313.14,-180 307.14,-180"/>
<text text-anchor="middle" x="209.75" y="-158.88" font-family="Helvetica,sans-Serif" font-size="10.00">6 &#160;A2A → AutoGen Artist invokes Plotly tools</text>
</g>
<!-- consensus&#45;&gt;artist -->
<g id="edge5" class="edge">
<title>consensus&#45;&gt;artist</title>
<path fill="none" stroke="#475569" stroke-width="1.3" d="M209.75,-215.7C209.75,-208.49 209.75,-199.93 209.75,-191.82"/>
<polygon fill="#475569" stroke="#475569" stroke-width="1.3" points="213.25,-192.07 209.75,-182.07 206.25,-192.07 213.25,-192.07"/>
</g>
<!-- artifacts -->
<g id="node7" class="node">
<title>artifacts</title>
<path fill="#f8fafc" stroke="#334155" d="M299.27,-108C299.27,-108 120.23,-108 120.23,-108 114.23,-108 108.23,-102 108.23,-96 108.23,-96 108.23,-84 108.23,-84 108.23,-78 114.23,-72 120.23,-72 120.23,-72 299.27,-72 299.27,-72 305.27,-72 311.27,-78 311.27,-84 311.27,-84 311.27,-96 311.27,-96 311.27,-102 305.27,-108 299.27,-108"/>
<text text-anchor="middle" x="209.75" y="-86.12" font-family="Helvetica,sans-Serif" font-size="10.00">7 &#160;Artist writes cost visualization artifacts</text>
</g>
<!-- artist&#45;&gt;artifacts -->
<g id="edge6" class="edge">
<title>artist&#45;&gt;artifacts</title>
<path fill="none" stroke="#475569" stroke-width="1.3" d="M209.75,-143.7C209.75,-136.49 209.75,-127.93 209.75,-119.82"/>
<polygon fill="#475569" stroke="#475569" stroke-width="1.3" points="213.25,-120.07 209.75,-110.07 206.25,-120.07 213.25,-120.07"/>
</g>
<!-- result -->
<g id="node8" class="node">
<title>result</title>
<path fill="#dcfce7" stroke="#334155" d="M323.64,-36C323.64,-36 95.86,-36 95.86,-36 89.86,-36 83.86,-30 83.86,-24 83.86,-24 83.86,-12 83.86,-12 83.86,-6 89.86,0 95.86,0 95.86,0 323.64,0 323.64,0 329.64,0 335.64,-6 335.64,-12 335.64,-12 335.64,-24 335.64,-24 335.64,-30 329.64,-36 323.64,-36"/>
<text text-anchor="middle" x="209.75" y="-14.12" font-family="Helvetica,sans-Serif" font-size="10.00">8 &#160;Coordinator returns transcript, itinerary, and charts</text>
</g>
<!-- artifacts&#45;&gt;result -->
<g id="edge7" class="edge">
<title>artifacts&#45;&gt;result</title>
<path fill="none" stroke="#475569" stroke-width="1.3" d="M209.75,-71.7C209.75,-64.49 209.75,-55.93 209.75,-47.82"/>
<polygon fill="#475569" stroke="#475569" stroke-width="1.3" points="213.25,-48.07 209.75,-38.07 206.25,-48.07 213.25,-48.07"/>
</g>
</g>
</svg>
