<?xml version="1.0" encoding="UTF-8" standalone="no"?>
<!DOCTYPE svg PUBLIC "-//W3C//DTD SVG 1.1//EN"
 "http://www.w3.org/Graphics/SVG/1.1/DTD/svg11.dtd">
<!-- Generated by graphviz version 12.2.1 (20241206.2353)
 -->
<!-- Title: DreamTripArchitecture Pages: 1 -->
<svg width="1780pt" height="272pt"
 viewBox="0.00 0.00 1780.09 271.54" xmlns="http://www.w3.org/2000/svg" xmlns:xlink="http://www.w3.org/1999/xlink">
<g id="graph0" class="graph" transform="scale(1 1) rotate(0) translate(25.2 246.34)">
<title>DreamTripArchitecture</title>
<polygon fill="white" stroke="none" points="-25.2,25.2 -25.2,-246.34 1754.89,-246.34 1754.89,25.2 -25.2,25.2"/>
<text text-anchor="middle" x="864.85" y="-196.24" font-family="Helvetica,sans-Serif" font-size="22.00">DreamTrip — A2A Multi&#45;Agent Architecture</text>
<g id="clust1" class="cluster">
<title>cluster_agents</title>
<path fill="#f5f3ff" stroke="#c4b5fd" d="M712.01,-71C712.01,-71 1433.02,-71 1433.02,-71 1439.02,-71 1445.02,-77 1445.02,-83 1445.02,-83 1445.02,-159 1445.02,-159 1445.02,-165 1439.02,-171 1433.02,-171 1433.02,-171 712.01,-171 712.01,-171 706.01,-171 700.01,-165 700.01,-159 700.01,-159 700.01,-83 700.01,-83 700.01,-77 706.01,-71 712.01,-71"/>
<text text-anchor="middle" x="1072.52" y="-146.1" font-family="Helvetica,sans-Serif" font-size="22.00">Independent A2A JSON&#45;RPC Agents</text>
</g>
<!-- traveler -->
<g id="node1" class="node">
<title>traveler</title>
<path fill="#e0f2fe" stroke="#334155" stroke-width="1.4" d="M53.67,-188C53.67,-188 12,-188 12,-188 6,-188 0,-182 0,-176 0,-176 0,-164 0,-164 0,-158 6,-152 12,-152 12,-152 53.67,-152 53.67,-152 59.67,-152 65.67,-158 65.67,-164 65.67,-164 65.67,-176 65.67,-176 65.67,-182 59.67,-188 53.67,-188"/>
<text text-anchor="middle" x="32.84" y="-165.55" font-family="Helvetica,sans-Serif" font-size="11.00">Traveler</text>
</g>
<!-- ui -->
<g id="node2" class="node">
<title>ui</title>
<path fill="#dbeafe" stroke="#334155" stroke-width="1.4" d="M270.09,-190.64C270.09,-190.64 140.67,-190.64 140.67,-190.64 134.67,-190.64 128.67,-184.64 128.67,-178.64 128.67,-178.64 128.67,-161.36 128.67,-161.36 128.67,-155.36 134.67,-149.36 140.67,-149.36 140.67,-149.36 270.09,-149.36 270.09,-149.36 276.09,-149.36 282.09,-155.36 282.09,-161.36 282.09,-161.36 282.09,-178.64 282.09,-178.64 282.09,-184.64 276.09,-190.64 270.09,-190.64"/>
<text text-anchor="middle" x="205.38" y="-171.55" font-family="Helvetica,sans-Serif" font-size="11.00">Streamlit UI</text>
<text text-anchor="middle" x="205.38" y="-159.55" font-family="Helvetica,sans-Serif" font-size="11.00">request · progress · results</text>
</g>
<!-- traveler&#45;&gt;ui -->
<g id="edge1" class="edge">
<title>traveler&#45;&gt;ui</title>
<path fill="none" stroke="#475569" stroke-width="1.4" d="M65.91,-170C80.33,-170 98.12,-170 116.09,-170"/>
<polygon fill="#475569" stroke="#475569" stroke-width="1.4" points="116.09,-173.5 126.09,-170 116.09,-166.5 116.09,-173.5"/>
</g>
<!-- coordinator -->
<g id="node3" class="node">
<title>coordinator</title>
<path fill="#fef3c7" stroke="#334155" stroke-width="1.4" d="M561.26,-126.64C561.26,-126.64 435.59,-126.64 435.59,-126.64 429.59,-126.64 423.59,-120.64 423.59,-114.64 423.59,-114.64 423.59,-97.36 423.59,-97.36 423.59,-91.36 429.59,-85.36 435.59,-85.36 435.59,-85.36 561.26,-85.36 561.26,-85.36 567.26,-85.36 573.26,-91.36 573.26,-97.36 573.26,-97.36 573.26,-114.64 573.26,-114.64 573.26,-120.64 567.26,-126.64 561.26,-126.64"/>
<text text-anchor="middle" x="498.43" y="-107.55" font-family="Helvetica,sans-Serif" font-size="11.00">Python Coordinator</text>
<text text-anchor="middle" x="498.43" y="-95.55" font-family="Helvetica,sans-Serif" font-size="11.00">pandas · httpx · A2A client</text>
</g>
<!-- ui&#45;&gt;coordinator -->
<g id="edge2" class="edge">
<title>ui&#45;&gt;coordinator</title>
<path fill="none" stroke="#475569" stroke-width="1.4" d="M282.3,-163.68C316.36,-159.85 356.83,-153.93 392.59,-145 407.08,-141.38 422.34,-136.41 436.58,-131.24"/>
<polygon fill="#475569" stroke="#475569" stroke-width="1.4" points="437.62,-134.58 445.77,-127.8 435.17,-128.02 437.62,-134.58"/>
</g>
<!-- coordinator&#45;&gt;ui -->
<g id="edge11" class="edge">
<title>coordinator&#45;&gt;ui</title>
<path fill="none" stroke="#475569" stroke-width="1.4" d="M423.31,-114.41C389.44,-119.01 348.96,-125.56 313.09,-134.25 300.59,-137.28 287.46,-141.11 274.85,-145.14"/>
<polygon fill="#475569" stroke="#475569" stroke-width="1.4" points="273.88,-141.78 265.46,-148.22 276.06,-148.43 273.88,-141.78"/>
<text text-anchor="middle" x="352.84" y="-135.45" font-family="Helvetica,sans-Serif" font-size="9.00">4 &#160;transcript + result</text>
</g>
<!-- concierge -->
<g id="node5" class="node">
<title>concierge</title>
<path fill="#ffffff" stroke="#334155" stroke-width="1.4" d="M834.43,-132.64C834.43,-132.64 720.01,-132.64 720.01,-132.64 714.01,-132.64 708.01,-126.64 708.01,-120.64 708.01,-120.64 708.01,-91.36 708.01,-91.36 708.01,-85.36 714.01,-79.36 720.01,-79.36 720.01,-79.36 834.43,-79.36 834.43,-79.36 840.43,-79.36 846.43,-85.36 846.43,-91.36 846.43,-91.36 846.43,-120.64 846.43,-120.64 846.43,-126.64 840.43,-132.64 834.43,-132.64"/>
<text text-anchor="middle" x="777.22" y="-113.55" font-family="Helvetica,sans-Serif" font-size="11.00">Travel Concierge :8001</text>
<text text-anchor="middle" x="777.22" y="-101.55" font-family="Helvetica,sans-Serif" font-size="11.00">LangChain</text>
<text text-anchor="middle" x="777.22" y="-89.55" font-family="Helvetica,sans-Serif" font-size="11.00">filter + metrics</text>
</g>
<!-- coordinator&#45;&gt;concierge -->
<g id="edge4" class="edge">
<title>coordinator&#45;&gt;concierge</title>
<path fill="none" stroke="#475569" stroke-width="1.4" d="M573.6,-106C611.25,-106 657.05,-106 695.57,-106"/>
<polygon fill="#475569" stroke="#475569" stroke-width="1.4" points="695.42,-109.5 705.42,-106 695.42,-102.5 695.42,-109.5"/>
<text text-anchor="middle" x="640.64" y="-107.2" font-family="Helvetica,sans-Serif" font-size="9.00">1 &#160;options request</text>
</g>
<!-- csv -->
<g id="node4" class="node">
<title>csv</title>
<path fill="#cffafe" stroke="#334155" stroke-width="1.4" d="M266.34,-95.47C266.34,-97.49 239.02,-99.13 205.38,-99.13 171.74,-99.13 144.42,-97.49 144.42,-95.47 144.42,-95.47 144.42,-62.53 144.42,-62.53 144.42,-60.51 171.74,-58.87 205.38,-58.87 239.02,-58.87 266.34,-60.51 266.34,-62.53 266.34,-62.53 266.34,-95.47 266.34,-95.47"/>
<path fill="none" stroke="#334155" stroke-width="1.4" d="M266.34,-95.47C266.34,-93.45 239.02,-91.81 205.38,-91.81 171.74,-91.81 144.42,-93.45 144.42,-95.47"/>
<text text-anchor="middle" x="205.38" y="-74.55" font-family="Helvetica,sans-Serif" font-size="11.00">Travel Options CSV</text>
</g>
<!-- csv&#45;&gt;coordinator -->
<g id="edge3" class="edge">
<title>csv&#45;&gt;coordinator</title>
<path fill="none" stroke="#475569" stroke-width="1.4" d="M266.58,-75.31C303.16,-74 350.73,-73.97 392.59,-79.25 399.22,-80.09 406.02,-81.21 412.83,-82.52"/>
<polygon fill="#475569" stroke="#475569" stroke-width="1.4" points="411.69,-85.85 422.19,-84.45 413.11,-79 411.69,-85.85"/>
<text text-anchor="middle" x="352.84" y="-80.45" font-family="Helvetica,sans-Serif" font-size="9.00">pandas read</text>
</g>
<!-- committee -->
<g id="node6" class="node">
<title>committee</title>
<path fill="#ffffff" stroke="#334155" stroke-width="1.4" d="M1151.85,-132.64C1151.85,-132.64 1022.43,-132.64 1022.43,-132.64 1016.43,-132.64 1010.43,-126.64 1010.43,-120.64 1010.43,-120.64 1010.43,-91.36 1010.43,-91.36 1010.43,-85.36 1016.43,-79.36 1022.43,-79.36 1022.43,-79.36 1151.85,-79.36 1151.85,-79.36 1157.85,-79.36 1163.85,-85.36 1163.85,-91.36 1163.85,-91.36 1163.85,-120.64 1163.85,-120.64 1163.85,-126.64 1157.85,-132.64 1151.85,-132.64"/>
<text text-anchor="middle" x="1087.14" y="-113.55" font-family="Helvetica,sans-Serif" font-size="11.00">Planning Committee :8002</text>
<text text-anchor="middle" x="1087.14" y="-101.55" font-family="Helvetica,sans-Serif" font-size="11.00">CrewAI</text>
<text text-anchor="middle" x="1087.14" y="-89.55" font-family="Helvetica,sans-Serif" font-size="11.00">Budget vs Experience</text>
</g>
<!-- concierge&#45;&gt;committee -->
<g id="edge5" class="edge">
<title>concierge&#45;&gt;committee</title>
<path fill="none" stroke="#475569" stroke-width="1.4" d="M846.56,-106C891.23,-106 950,-106 998.16,-106"/>
<polygon fill="#475569" stroke="#475569" stroke-width="1.4" points="998.04,-109.5 1008.04,-106 998.04,-102.5 998.04,-109.5"/>
<text text-anchor="middle" x="928.43" y="-107.2" font-family="Helvetica,sans-Serif" font-size="9.00">2 &#160;candidates + summary</text>
</g>
<!-- llm -->
<g id="node9" class="node">
<title>llm</title>
<path fill="#fae8ff" stroke="#334155" stroke-width="1.4" d="M1717.69,-36C1717.69,-36 1557.52,-36 1557.52,-36 1551.52,-36 1545.52,-30 1545.52,-24 1545.52,-24 1545.52,-12 1545.52,-12 1545.52,-6 1551.52,0 1557.52,0 1557.52,0 1717.69,0 1717.69,0 1723.69,0 1729.69,-6 1729.69,-12 1729.69,-12 1729.69,-24 1729.69,-24 1729.69,-30 1723.69,-36 1717.69,-36"/>
<text text-anchor="middle" x="1637.61" y="-13.55" font-family="Helvetica,sans-Serif" font-size="11.00">Euri / OpenAI&#45;compatible Models</text>
</g>
<!-- concierge&#45;&gt;llm -->
<g id="edge8" class="edge">
<title>concierge&#45;&gt;llm</title>
<path fill="none" stroke="#475569" stroke-width="1.4" stroke-dasharray="5,2" d="M846.73,-90.17C892.79,-80.01 954.99,-67.23 1010.43,-59 1212.26,-29.05 1264.13,-29.75 1468.02,-22 1489.12,-21.2 1511.72,-20.53 1533.3,-19.98"/>
<polygon fill="#475569" stroke="#475569" stroke-width="1.4" points="1533.13,-23.49 1543.04,-19.75 1532.96,-16.49 1533.13,-23.49"/>
</g>
<!-- artist -->
<g id="node7" class="node">
<title>artist</title>
<path fill="#ffffff" stroke="#334155" stroke-width="1.4" d="M1425.02,-132.64C1425.02,-132.64 1327.1,-132.64 1327.1,-132.64 1321.1,-132.64 1315.1,-126.64 1315.1,-120.64 1315.1,-120.64 1315.1,-91.36 1315.1,-91.36 1315.1,-85.36 1321.1,-79.36 1327.1,-79.36 1327.1,-79.36 1425.02,-79.36 1425.02,-79.36 1431.02,-79.36 1437.02,-85.36 1437.02,-91.36 1437.02,-91.36 1437.02,-120.64 1437.02,-120.64 1437.02,-126.64 1431.02,-132.64 1425.02,-132.64"/>
<text text-anchor="middle" x="1376.06" y="-113.55" font-family="Helvetica,sans-Serif" font-size="11.00">Itinerary Artist :8003</text>
<text text-anchor="middle" x="1376.06" y="-101.55" font-family="Helvetica,sans-Serif" font-size="11.00">AutoGen + Plotly</text>
<text text-anchor="middle" x="1376.06" y="-89.55" font-family="Helvetica,sans-Serif" font-size="11.00">visual artifacts</text>
</g>
<!-- committee&#45;&gt;artist -->
<g id="edge6" class="edge">
<title>committee&#45;&gt;artist</title>
<path fill="none" stroke="#475569" stroke-width="1.4" d="M1164.28,-106C1207.28,-106 1260.73,-106 1303.04,-106"/>
<polygon fill="#475569" stroke="#475569" stroke-width="1.4" points="1302.82,-109.5 1312.82,-106 1302.82,-102.5 1302.82,-109.5"/>
<text text-anchor="middle" x="1239.48" y="-107.2" font-family="Helvetica,sans-Serif" font-size="9.00">3 &#160;consensus itinerary</text>
</g>
<!-- committee&#45;&gt;llm -->
<g id="edge9" class="edge">
<title>committee&#45;&gt;llm</title>
<path fill="none" stroke="#475569" stroke-width="1.4" stroke-dasharray="5,2" d="M1164.29,-88.7C1208.22,-79.1 1264.6,-67.44 1315.1,-59 1387.7,-46.87 1470.06,-36.43 1533.24,-29.12"/>
<polygon fill="#475569" stroke="#475569" stroke-width="1.4" points="1533.57,-32.61 1543.11,-27.99 1532.77,-25.65 1533.57,-32.61"/>
</g>
<!-- artifacts -->
<g id="node8" class="node">
<title>artifacts</title>
<path fill="#dcfce7" stroke="#334155" stroke-width="1.4" d="M1695.94,-154.22C1695.94,-157.07 1669.79,-159.38 1637.61,-159.38 1605.42,-159.38 1579.27,-157.07 1579.27,-154.22 1579.27,-154.22 1579.27,-107.78 1579.27,-107.78 1579.27,-104.93 1605.42,-102.62 1637.61,-102.62 1669.79,-102.62 1695.94,-104.93 1695.94,-107.78 1695.94,-107.78 1695.94,-154.22 1695.94,-154.22"/>
<path fill="none" stroke="#334155" stroke-width="1.4" d="M1695.94,-154.22C1695.94,-151.37 1669.79,-149.06 1637.61,-149.06 1605.42,-149.06 1579.27,-151.37 1579.27,-154.22"/>
<text text-anchor="middle" x="1637.61" y="-132.55" font-family="Helvetica,sans-Serif" font-size="11.00">Artifact Store</text>
<text text-anchor="middle" x="1637.61" y="-120.55" font-family="Helvetica,sans-Serif" font-size="11.00">Plotly JSON charts</text>
</g>
<!-- artist&#45;&gt;artifacts -->
<g id="edge7" class="edge">
<title>artist&#45;&gt;artifacts</title>
<path fill="none" stroke="#475569" stroke-width="1.4" d="M1437.26,-111.8C1476.02,-115.53 1526.54,-120.4 1567.02,-124.3"/>
<polygon fill="#475569" stroke="#475569" stroke-width="1.4" points="1566.56,-127.77 1576.85,-125.24 1567.24,-120.8 1566.56,-127.77"/>
<text text-anchor="middle" x="1491.27" y="-119.7" font-family="Helvetica,sans-Serif" font-size="9.00">write charts</text>
</g>
<!-- artist&#45;&gt;llm -->
<g id="edge10" class="edge">
<title>artist&#45;&gt;llm</title>
<path fill="none" stroke="#475569" stroke-width="1.4" stroke-dasharray="5,2" d="M1437.26,-85.59C1477.36,-71.99 1530.06,-54.13 1571.2,-40.18"/>
<polygon fill="#475569" stroke="#475569" stroke-width="1.4" points="1572.12,-43.56 1580.47,-37.03 1569.87,-36.93 1572.12,-43.56"/>
</g>
</g>
</svg>
