<?xml version="1.0" encoding="UTF-8" standalone="no"?>
<!DOCTYPE svg PUBLIC "-//W3C//DTD SVG 1.1//EN"
 "http://www.w3.org/Graphics/SVG/1.1/DTD/svg11.dtd">
<!-- Generated by graphviz version 12.2.1 (20241206.2353)
 -->
<!-- Title: DreamTrip_Architecture Pages: 1 -->
<svg width="1408pt" height="1508pt"
 viewBox="0.00 0.00 1408.00 1508.00" xmlns="http://www.w3.org/2000/svg" xmlns:xlink="http://www.w3.org/1999/xlink">
<g id="graph0" class="graph" transform="scale(1 1) rotate(0) translate(4 1504)">
<title>DreamTrip_Architecture</title>
<polygon fill="white" stroke="none" points="-4,4 -4,-1504 1404,-1504 1404,4 -4,4"/>
<g id="clust1" class="cluster">
<title>cluster_concierge</title>
<polygon fill="none" stroke="#4caf50" stroke-dasharray="5,2" points="8,-164.25 8,-944.5 373,-944.5 373,-164.25 8,-164.25"/>
<text text-anchor="middle" x="190.5" y="-927.2" font-family="Times,serif" font-size="14.00">Travel Concierge Agent (Port 8001)</text>
</g>
<g id="clust2" class="cluster">
<title>cluster_committee</title>
<polygon fill="none" stroke="#2196f3" stroke-width="3" stroke-dasharray="5,2" points="381,-151.75 381,-1044.25 1012,-1044.25 1012,-151.75 381,-151.75"/>
<text text-anchor="middle" x="696.5" y="-1026.95" font-family="Times,serif" font-size="14.00">Planning Committee Agent (Port 8002)</text>
<text text-anchor="middle" x="696.5" y="-1010.45" font-family="Times,serif" font-size="14.00">━━━━━━━━━━━━━━━━━━━━━━━━━━━━━━━━━━━━━━━━━━</text>
<text text-anchor="middle" x="696.5" y="-990.2" font-family="Times,serif" font-size="14.00">DUAL&#45;AGENT DEBATE ARCHITECTURE (CrewAI)</text>
<text text-anchor="middle" x="696.5" y="-973.7" font-family="Times,serif" font-size="14.00">━━━━━━━━━━━━━━━━━━━━━━━━━━━━━━━━━━━━━━━━━━</text>
</g>
<g id="clust3" class="cluster">
<title>cluster_debate_agents</title>
<polygon fill="#e1f5fe" stroke="#0277bd" stroke-width="2" points="458,-526 458,-954.75 606,-954.75 606,-526 458,-526"/>
<text text-anchor="middle" x="532" y="-937.45" font-family="Times,serif" font-size="14.00">Debate Agents</text>
</g>
<g id="clust4" class="cluster">
<title>cluster_artist</title>
<polygon fill="none" stroke="#e91e63" stroke-dasharray="5,2" points="1020,-187.88 1020,-944.5 1392,-944.5 1392,-187.88 1020,-187.88"/>
<text text-anchor="middle" x="1206" y="-927.2" font-family="Times,serif" font-size="14.00">Itinerary Artist Agent (Port 8003)</text>
</g>
<g id="clust5" class="cluster">
<title>cluster_legend</title>
<polygon fill="#fafafa" stroke="black" points="851,-1365.62 851,-1445.62 1353,-1445.62 1353,-1365.62 851,-1365.62"/>
<text text-anchor="middle" x="1102" y="-1428.33" font-family="Times,serif" font-size="14.00">Legend</text>
</g>
<!-- coordinator -->
<g id="node1" class="node">
<title>coordinator</title>
<path fill="#e3f2fd" stroke="black" d="M766,-1240.25C766,-1240.25 610,-1240.25 610,-1240.25 604,-1240.25 598,-1234.25 598,-1228.25 598,-1228.25 598,-1124.25 598,-1124.25 598,-1118.25 604,-1112.25 610,-1112.25 610,-1112.25 766,-1112.25 766,-1112.25 772,-1112.25 778,-1118.25 778,-1124.25 778,-1124.25 778,-1228.25 778,-1228.25 778,-1234.25 772,-1240.25 766,-1240.25"/>
<text text-anchor="middle" x="688" y="-1226.75" font-family="Arial" font-size="10.00">Coordinator</text>
<text text-anchor="middle" x="688" y="-1214.75" font-family="Arial" font-size="10.00">(Orchestrator)</text>
<text text-anchor="middle" x="688" y="-1190.75" font-family="Arial" font-size="10.00">orchestrate_trip_planning()</text>
<text text-anchor="middle" x="688" y="-1178.75" font-family="Arial" font-size="10.00">httpx.AsyncClient</text>
<text text-anchor="middle" x="688" y="-1166.75" font-family="Arial" font-size="10.00">ClientFactory</text>
<text text-anchor="middle" x="688" y="-1142.75" font-family="Arial" font-size="10.00">Functions:</text>
<text text-anchor="middle" x="688" y="-1130.75" font-family="Arial" font-size="10.00">• _send_message()</text>
<text text-anchor="middle" x="688" y="-1118.75" font-family="Arial" font-size="10.00">• Orchestrates travel workflow</text>
</g>
<!-- concierge_server -->
<g id="node3" class="node">
<title>concierge_server</title>
<path fill="#a5d6a7" stroke="black" d="M352.75,-912C352.75,-912 221.25,-912 221.25,-912 215.25,-912 209.25,-906 209.25,-900 209.25,-900 209.25,-789.5 209.25,-789.5 209.25,-783.5 215.25,-777.5 221.25,-777.5 221.25,-777.5 352.75,-777.5 352.75,-777.5 358.75,-777.5 364.75,-783.5 364.75,-789.5 364.75,-789.5 364.75,-900 364.75,-900 364.75,-906 358.75,-912 352.75,-912"/>
<text text-anchor="middle" x="287" y="-894.7" font-family="Arial" font-size="14.00">FastAPI Server</text>
<text text-anchor="middle" x="287" y="-878.95" font-family="Arial" font-size="14.00">Port 8001</text>
<text text-anchor="middle" x="287" y="-847.2" font-family="Arial" font-size="14.00">Uvicorn</text>
<text text-anchor="middle" x="287" y="-831.45" font-family="Arial" font-size="14.00">A2AFastAPIApplication</text>
<text text-anchor="middle" x="287" y="-799.7" font-family="Arial" font-size="14.00">Endpoint: /a2a</text>
<text text-anchor="middle" x="287" y="-783.95" font-family="Arial" font-size="14.00">(JSON&#45;RPC)</text>
</g>
<!-- coordinator&#45;&gt;concierge_server -->
<g id="edge2" class="edge">
<title>coordinator&#45;&gt;concierge_server</title>
<path fill="none" stroke="#4caf50" stroke-width="2" d="M597.8,-1162.74C514.14,-1149.4 397.67,-1125.84 364.25,-1094.25 318.13,-1050.65 299.36,-980.06 291.82,-925.24"/>
<polygon fill="#4caf50" stroke="#4caf50" stroke-width="2" points="295.3,-924.88 290.59,-915.39 288.35,-925.75 295.3,-924.88"/>
<text text-anchor="middle" x="435.12" y="-1085.7" font-family="Arial" font-size="9.00">HTTP POST /a2a</text>
<text text-anchor="middle" x="435.12" y="-1075.2" font-family="Arial" font-size="9.00">A2A Message</text>
<text text-anchor="middle" x="435.12" y="-1064.7" font-family="Arial" font-size="9.00">{csv_text, dataset_path, model}</text>
<text text-anchor="middle" x="435.12" y="-1054.2" font-family="Arial" font-size="9.00">&#39;Find options for Paris, Tokyo, NYC&#39;</text>
</g>
<!-- committee_server -->
<g id="node4" class="node">
<title>committee_server</title>
<path fill="#90caf9" stroke="black" d="M875.75,-912C875.75,-912 744.25,-912 744.25,-912 738.25,-912 732.25,-906 732.25,-900 732.25,-900 732.25,-789.5 732.25,-789.5 732.25,-783.5 738.25,-777.5 744.25,-777.5 744.25,-777.5 875.75,-777.5 875.75,-777.5 881.75,-777.5 887.75,-783.5 887.75,-789.5 887.75,-789.5 887.75,-900 887.75,-900 887.75,-906 881.75,-912 875.75,-912"/>
<text text-anchor="middle" x="810" y="-894.7" font-family="Arial" font-size="14.00">FastAPI Server</text>
<text text-anchor="middle" x="810" y="-878.95" font-family="Arial" font-size="14.00">Port 8002</text>
<text text-anchor="middle" x="810" y="-847.2" font-family="Arial" font-size="14.00">Uvicorn</text>
<text text-anchor="middle" x="810" y="-831.45" font-family="Arial" font-size="14.00">A2AFastAPIApplication</text>
<text text-anchor="middle" x="810" y="-799.7" font-family="Arial" font-size="14.00">Endpoint: /a2a</text>
<text text-anchor="middle" x="810" y="-783.95" font-family="Arial" font-size="14.00">(JSON&#45;RPC)</text>
</g>
<!-- coordinator&#45;&gt;committee_server -->
<g id="edge3" class="edge">
<title>coordinator&#45;&gt;committee_server</title>
<path fill="none" stroke="#2196f3" stroke-width="2" d="M647.68,-1111.8C640.22,-1092.68 636.66,-1071.63 643.5,-1052.25 660.74,-1003.42 694.96,-957.64 727.91,-921.66"/>
<polygon fill="#2196f3" stroke="#2196f3" stroke-width="2" points="730.37,-924.16 734.64,-914.46 725.25,-919.38 730.37,-924.16"/>
<text text-anchor="middle" x="719.25" y="-1085.7" font-family="Arial" font-size="9.00">HTTP POST /a2a</text>
<text text-anchor="middle" x="719.25" y="-1075.2" font-family="Arial" font-size="9.00">A2A Message</text>
<text text-anchor="middle" x="719.25" y="-1064.7" font-family="Arial" font-size="9.00">{travel_options, concierge_summary}</text>
<text text-anchor="middle" x="719.25" y="-1054.2" font-family="Arial" font-size="9.00">&#39;Debate and finalize itinerary&#39;</text>
</g>
<!-- artist_server -->
<g id="node5" class="node">
<title>artist_server</title>
<path fill="#f48fb1" stroke="black" d="M1171.75,-912C1171.75,-912 1040.25,-912 1040.25,-912 1034.25,-912 1028.25,-906 1028.25,-900 1028.25,-900 1028.25,-789.5 1028.25,-789.5 1028.25,-783.5 1034.25,-777.5 1040.25,-777.5 1040.25,-777.5 1171.75,-777.5 1171.75,-777.5 1177.75,-777.5 1183.75,-783.5 1183.75,-789.5 1183.75,-789.5 1183.75,-900 1183.75,-900 1183.75,-906 1177.75,-912 1171.75,-912"/>
<text text-anchor="middle" x="1106" y="-894.7" font-family="Arial" font-size="14.00">FastAPI Server</text>
<text text-anchor="middle" x="1106" y="-878.95" font-family="Arial" font-size="14.00">Port 8003</text>
<text text-anchor="middle" x="1106" y="-847.2" font-family="Arial" font-size="14.00">Uvicorn</text>
<text text-anchor="middle" x="1106" y="-831.45" font-family="Arial" font-size="14.00">A2AFastAPIApplication</text>
<text text-anchor="middle" x="1106" y="-799.7" font-family="Arial" font-size="14.00">Endpoint: /a2a</text>
<text text-anchor="middle" x="1106" y="-783.95" font-family="Arial" font-size="14.00">(JSON&#45;RPC)</text>
</g>
<!-- coordinator&#45;&gt;artist_server -->
<g id="edge4" class="edge">
<title>coordinator&#45;&gt;artist_server</title>
<path fill="none" stroke="#e91e63" stroke-width="2" d="M778.06,-1140.78C811.21,-1127.28 848.76,-1111.02 882,-1094.25 914.48,-1077.87 917.86,-1064.1 952.25,-1052.25 979.25,-1042.95 993.01,-1061.19 1016,-1044.25 1054.68,-1015.75 1077.13,-966.7 1089.93,-924.48"/>
<polygon fill="#e91e63" stroke="#e91e63" stroke-width="2" points="1093.23,-925.7 1092.62,-915.12 1086.5,-923.77 1093.23,-925.7"/>
<text text-anchor="middle" x="1014.12" y="-1085.7" font-family="Arial" font-size="9.00">HTTP POST /a2a</text>
<text text-anchor="middle" x="1014.12" y="-1075.2" font-family="Arial" font-size="9.00">A2A Message</text>
<text text-anchor="middle" x="1014.12" y="-1064.7" font-family="Arial" font-size="9.00">{travel_options, final_itinerary}</text>
<text text-anchor="middle" x="1014.12" y="-1054.2" font-family="Arial" font-size="9.00">&#39;Visualize costs and budget&#39;</text>
</g>
<!-- csv -->
<g id="node2" class="node">
<title>csv</title>
<polygon fill="#fff9c4" stroke="black" points="744,-1500 626,-1500 626,-1286.75 750,-1286.75 750,-1494 744,-1500"/>
<polyline fill="none" stroke="black" points="744,-1500 744,-1494"/>
<polyline fill="none" stroke="black" points="750,-1494 744,-1494"/>
<text text-anchor="middle" x="688" y="-1482.7" font-family="Arial" font-size="14.00">Travel CSV</text>
<text text-anchor="middle" x="688" y="-1466.95" font-family="Arial" font-size="14.00">File</text>
<text text-anchor="middle" x="688" y="-1435.2" font-family="Arial" font-size="14.00">travel_options.csv</text>
<text text-anchor="middle" x="688" y="-1403.45" font-family="Arial" font-size="14.00">Columns:</text>
<text text-anchor="middle" x="688" y="-1387.7" font-family="Arial" font-size="14.00">• City</text>
<text text-anchor="middle" x="688" y="-1371.95" font-family="Arial" font-size="14.00">• Type</text>
<text text-anchor="middle" x="688" y="-1356.2" font-family="Arial" font-size="14.00">• Name</text>
<text text-anchor="middle" x="688" y="-1340.45" font-family="Arial" font-size="14.00">• Cost</text>
<text text-anchor="middle" x="688" y="-1324.7" font-family="Arial" font-size="14.00">• Rating</text>
<text text-anchor="middle" x="688" y="-1308.95" font-family="Arial" font-size="14.00">• Duration</text>
<text text-anchor="middle" x="688" y="-1293.2" font-family="Arial" font-size="14.00">• Description</text>
</g>
<!-- csv&#45;&gt;coordinator -->
<g id="edge1" class="edge">
<title>csv&#45;&gt;coordinator</title>
<path fill="none" stroke="black" d="M688,-1286.39C688,-1274.74 688,-1263.06 688,-1251.91"/>
<polygon fill="black" stroke="black" points="691.5,-1252.02 688,-1242.02 684.5,-1252.02 691.5,-1252.02"/>
<text text-anchor="middle" x="716.12" y="-1260.2" font-family="Arial" font-size="9.00">pd.read_csv()</text>
</g>
<!-- concierge_server&#45;&gt;coordinator -->
<g id="edge20" class="edge">
<title>concierge_server&#45;&gt;coordinator</title>
<path fill="none" stroke="#388e3c" stroke-width="2" d="M324.94,-912.06C354.24,-956.89 399.04,-1013.36 454,-1044.25 474.38,-1055.71 484.23,-1043.72 506,-1052.25 506.65,-1052.51 545.37,-1078.66 586.93,-1106.78"/>
<polygon fill="#388e3c" stroke="#388e3c" stroke-width="2" points="584.78,-1109.56 595.03,-1112.26 588.71,-1103.76 584.78,-1109.56"/>
<text text-anchor="middle" x="599.24" y="-1075.2" font-family="Arial" font-size="9.00">HTTP Response</text>
<text text-anchor="middle" x="599.24" y="-1064.7" font-family="Arial" font-size="9.00">A2A Message</text>
</g>
<!-- concierge_handler -->
<g id="node6" class="node">
<title>concierge_handler</title>
<path fill="#c8e6c9" stroke="black" d="M168.25,-710.25C168.25,-710.25 27.75,-710.25 27.75,-710.25 21.75,-710.25 15.75,-704.25 15.75,-698.25 15.75,-698.25 15.75,-524.75 15.75,-524.75 15.75,-518.75 21.75,-512.75 27.75,-512.75 27.75,-512.75 168.25,-512.75 168.25,-512.75 174.25,-512.75 180.25,-518.75 180.25,-524.75 180.25,-524.75 180.25,-698.25 180.25,-698.25 180.25,-704.25 174.25,-710.25 168.25,-710.25"/>
<text text-anchor="middle" x="98" y="-692.95" font-family="Arial" font-size="14.00">ReaderRequestHandler</text>
<text text-anchor="middle" x="98" y="-677.2" font-family="Arial" font-size="14.00">(SimpleRequestHandler)</text>
<text text-anchor="middle" x="98" y="-645.45" font-family="Arial" font-size="14.00">• on_message_send()</text>
<text text-anchor="middle" x="98" y="-629.7" font-family="Arial" font-size="14.00">• Input validation</text>
<text text-anchor="middle" x="98" y="-613.95" font-family="Arial" font-size="14.00">• asyncio.to_thread()</text>
<text text-anchor="middle" x="98" y="-598.2" font-family="Arial" font-size="14.00">• Error handling</text>
<text text-anchor="middle" x="98" y="-566.45" font-family="Arial" font-size="14.00">Validates:</text>
<text text-anchor="middle" x="98" y="-550.7" font-family="Arial" font-size="14.00">• dataset_path</text>
<text text-anchor="middle" x="98" y="-534.95" font-family="Arial" font-size="14.00">• csv_text</text>
<text text-anchor="middle" x="98" y="-519.2" font-family="Arial" font-size="14.00">• records</text>
</g>
<!-- concierge_server&#45;&gt;concierge_handler -->
<g id="edge5" class="edge">
<title>concierge_server&#45;&gt;concierge_handler</title>
<path fill="none" stroke="#66bb6a" stroke-dasharray="5,2" d="M208.83,-830.72C161.46,-818.36 104.67,-794.59 75.25,-749.25 69.84,-740.91 66.76,-731.69 65.42,-722.11"/>
<polygon fill="#66bb6a" stroke="#66bb6a" points="68.91,-721.94 64.7,-712.22 61.93,-722.45 68.91,-721.94"/>
<text text-anchor="middle" x="117.62" y="-740.7" font-family="Arial" font-size="9.00">RequestHandler</text>
<text text-anchor="middle" x="117.62" y="-730.2" font-family="Arial" font-size="9.00">on_message_send()</text>
</g>
<!-- concierge_card -->
<g id="node14" class="node">
<title>concierge_card</title>
<polygon fill="#e8f5e9" stroke="black" points="359.38,-668.38 198.62,-668.38 198.62,-554.62 365.38,-554.62 365.38,-662.38 359.38,-668.38"/>
<polyline fill="none" stroke="black" points="359.38,-668.38 359.38,-662.38"/>
<polyline fill="none" stroke="black" points="365.38,-662.38 359.38,-662.38"/>
<text text-anchor="middle" x="282" y="-656.77" font-family="Arial" font-size="8.00">AgentCard</text>
<text text-anchor="middle" x="282" y="-638.02" font-family="Arial" font-size="8.00">name: Travel Concierge</text>
<text text-anchor="middle" x="282" y="-628.27" font-family="Arial" font-size="8.00">skill_id: travel_csv_ingest</text>
<text text-anchor="middle" x="282" y="-618.52" font-family="Arial" font-size="8.00">skill_name: Travel Options Search</text>
<text text-anchor="middle" x="282" y="-599.77" font-family="Arial" font-size="8.00">Capabilities:</text>
<text text-anchor="middle" x="282" y="-590.02" font-family="Arial" font-size="8.00">• streaming: false</text>
<text text-anchor="middle" x="282" y="-580.27" font-family="Arial" font-size="8.00">• push_notifications: false</text>
<text text-anchor="middle" x="282" y="-570.52" font-family="Arial" font-size="8.00">• transport: jsonrpc</text>
<text text-anchor="middle" x="282" y="-560.77" font-family="Arial" font-size="8.00">• output_modes: text/plain, application/json</text>
</g>
<!-- concierge_server&#45;&gt;concierge_card -->
<!-- committee_server&#45;&gt;coordinator -->
<g id="edge21" class="edge">
<title>committee_server&#45;&gt;coordinator</title>
<path fill="none" stroke="#1976d2" stroke-width="2" d="M820.49,-912.34C825.48,-964.87 824.94,-1038.33 795,-1094.25 792.56,-1098.8 789.75,-1103.17 786.64,-1107.35"/>
<polygon fill="#1976d2" stroke="#1976d2" stroke-width="2" points="783.95,-1105.11 780.27,-1115.04 789.35,-1109.57 783.95,-1105.11"/>
<text text-anchor="middle" x="843.91" y="-1075.2" font-family="Arial" font-size="9.00">HTTP Response</text>
<text text-anchor="middle" x="843.91" y="-1064.7" font-family="Arial" font-size="9.00">A2A Message</text>
</g>
<!-- committee_handler -->
<g id="node7" class="node">
<title>committee_handler</title>
<path fill="#bbdefb" stroke="black" d="M768.25,-710.25C768.25,-710.25 627.75,-710.25 627.75,-710.25 621.75,-710.25 615.75,-704.25 615.75,-698.25 615.75,-698.25 615.75,-524.75 615.75,-524.75 615.75,-518.75 621.75,-512.75 627.75,-512.75 627.75,-512.75 768.25,-512.75 768.25,-512.75 774.25,-512.75 780.25,-518.75 780.25,-524.75 780.25,-524.75 780.25,-698.25 780.25,-698.25 780.25,-704.25 774.25,-710.25 768.25,-710.25"/>
<text text-anchor="middle" x="698" y="-692.95" font-family="Arial" font-size="14.00">AnalystRequestHandler</text>
<text text-anchor="middle" x="698" y="-677.2" font-family="Arial" font-size="14.00">(SimpleRequestHandler)</text>
<text text-anchor="middle" x="698" y="-645.45" font-family="Arial" font-size="14.00">• on_message_send()</text>
<text text-anchor="middle" x="698" y="-629.7" font-family="Arial" font-size="14.00">• Input validation</text>
<text text-anchor="middle" x="698" y="-613.95" font-family="Arial" font-size="14.00">• asyncio.to_thread()</text>
<text text-anchor="middle" x="698" y="-598.2" font-family="Arial" font-size="14.00">• Error handling</text>
<text text-anchor="middle" x="698" y="-566.45" font-family="Arial" font-size="14.00">Validates:</text>
<text text-anchor="middle" x="698" y="-550.7" font-family="Arial" font-size="14.00">• travel_options (list)</text>
<text text-anchor="middle" x="698" y="-534.95" font-family="Arial" font-size="14.00">• concierge_summary</text>
<text text-anchor="middle" x="698" y="-519.2" font-family="Arial" font-size="14.00">• metrics (optional)</text>
</g>
<!-- committee_server&#45;&gt;committee_handler -->
<g id="edge6" class="edge">
<title>committee_server&#45;&gt;committee_handler</title>
<path fill="none" stroke="#42a5f5" stroke-dasharray="5,2" d="M802.82,-777.05C799.57,-760.62 794.85,-743.41 788,-728.25 786.87,-725.75 785.68,-723.26 784.43,-720.78"/>
<polygon fill="#42a5f5" stroke="#42a5f5" points="787.52,-719.14 779.71,-711.98 781.35,-722.45 787.52,-719.14"/>
<text text-anchor="middle" x="838.23" y="-740.7" font-family="Arial" font-size="9.00">RequestHandler</text>
<text text-anchor="middle" x="838.23" y="-730.2" font-family="Arial" font-size="9.00">on_message_send()</text>
</g>
<!-- committee_card -->
<g id="node15" class="node">
<title>committee_card</title>
<polygon fill="#e3f2fd" stroke="black" points="997.88,-705.5 798.12,-705.5 798.12,-517.5 1003.88,-517.5 1003.88,-699.5 997.88,-705.5"/>
<polyline fill="none" stroke="black" points="997.88,-705.5 997.88,-699.5"/>
<polyline fill="none" stroke="black" points="1003.88,-699.5 997.88,-699.5"/>
<text text-anchor="middle" x="901" y="-693.9" font-family="Arial" font-size="8.00">AgentCard</text>
<text text-anchor="middle" x="901" y="-675.15" font-family="Arial" font-size="8.00">name: Planning Committee</text>
<text text-anchor="middle" x="901" y="-665.4" font-family="Arial" font-size="8.00">skill_id: trip_planning_committee</text>
<text text-anchor="middle" x="901" y="-655.65" font-family="Arial" font-size="8.00">skill_name: Trip Negotiation</text>
<text text-anchor="middle" x="901" y="-636.9" font-family="Arial" font-size="8.00">━━━━━━━━━━━━━━━━━━━━━━━</text>
<text text-anchor="middle" x="901" y="-624.9" font-family="Arial" font-size="8.00">DUAL AGENT ARCHITECTURE</text>
<text text-anchor="middle" x="901" y="-615.15" font-family="Arial" font-size="8.00">━━━━━━━━━━━━━━━━━━━━━━━</text>
<text text-anchor="middle" x="901" y="-603.15" font-family="Arial" font-size="8.00">• Budget Watchdog (frugal)</text>
<text text-anchor="middle" x="901" y="-593.4" font-family="Arial" font-size="8.00">• Experience Guru (luxury)</text>
<text text-anchor="middle" x="901" y="-583.65" font-family="Arial" font-size="8.00">• Debate &amp; Negotiate</text>
<text text-anchor="middle" x="901" y="-573.9" font-family="Arial" font-size="8.00">• Consensus&#45;based</text>
<text text-anchor="middle" x="901" y="-564.15" font-family="Arial" font-size="8.00">━━━━━━━━━━━━━━━━━━━━━━━</text>
<text text-anchor="middle" x="901" y="-543.15" font-family="Arial" font-size="8.00">Capabilities:</text>
<text text-anchor="middle" x="901" y="-533.4" font-family="Arial" font-size="8.00">• streaming: false</text>
<text text-anchor="middle" x="901" y="-523.65" font-family="Arial" font-size="8.00">• transport: jsonrpc</text>
</g>
<!-- committee_server&#45;&gt;committee_card -->
<!-- artist_server&#45;&gt;coordinator -->
<g id="edge22" class="edge">
<title>artist_server&#45;&gt;coordinator</title>
<path fill="none" stroke="#c2185b" stroke-width="2" d="M1117.39,-912.47C1122.83,-968.14 1120.37,-1045.91 1076,-1094.25 1038.29,-1135.33 892.82,-1156.86 791.15,-1167.13"/>
<polygon fill="#c2185b" stroke="#c2185b" stroke-width="2" points="790.98,-1163.63 781.37,-1168.09 791.66,-1170.6 790.98,-1163.63"/>
<text text-anchor="middle" x="1134.72" y="-1075.2" font-family="Arial" font-size="9.00">HTTP Response</text>
<text text-anchor="middle" x="1134.72" y="-1064.7" font-family="Arial" font-size="9.00">A2A Message</text>
</g>
<!-- artist_handler -->
<g id="node8" class="node">
<title>artist_handler</title>
<path fill="#f8bbd0" stroke="black" d="M1188,-710.25C1188,-710.25 1040,-710.25 1040,-710.25 1034,-710.25 1028,-704.25 1028,-698.25 1028,-698.25 1028,-524.75 1028,-524.75 1028,-518.75 1034,-512.75 1040,-512.75 1040,-512.75 1188,-512.75 1188,-512.75 1194,-512.75 1200,-518.75 1200,-524.75 1200,-524.75 1200,-698.25 1200,-698.25 1200,-704.25 1194,-710.25 1188,-710.25"/>
<text text-anchor="middle" x="1114" y="-692.95" font-family="Arial" font-size="14.00">VisualizerRequestHandler</text>
<text text-anchor="middle" x="1114" y="-677.2" font-family="Arial" font-size="14.00">(SimpleRequestHandler)</text>
<text text-anchor="middle" x="1114" y="-645.45" font-family="Arial" font-size="14.00">• on_message_send()</text>
<text text-anchor="middle" x="1114" y="-629.7" font-family="Arial" font-size="14.00">• Input validation</text>
<text text-anchor="middle" x="1114" y="-613.95" font-family="Arial" font-size="14.00">• asyncio.to_thread()</text>
<text text-anchor="middle" x="1114" y="-598.2" font-family="Arial" font-size="14.00">• Error handling</text>
<text text-anchor="middle" x="1114" y="-566.45" font-family="Arial" font-size="14.00">Validates:</text>
<text text-anchor="middle" x="1114" y="-550.7" font-family="Arial" font-size="14.00">• travel_options (list)</text>
<text text-anchor="middle" x="1114" y="-534.95" font-family="Arial" font-size="14.00">• final_itinerary</text>
<text text-anchor="middle" x="1114" y="-519.2" font-family="Arial" font-size="14.00">• artifacts_dir</text>
</g>
<!-- artist_server&#45;&gt;artist_handler -->
<g id="edge7" class="edge">
<title>artist_server&#45;&gt;artist_handler</title>
<path fill="none" stroke="#ec407a" stroke-dasharray="5,2" d="M1079.04,-777.15C1076.24,-767.91 1073.84,-758.43 1072.25,-749.25 1070.68,-740.21 1070.44,-730.93 1071.17,-721.66"/>
<polygon fill="#ec407a" stroke="#ec407a" points="1074.63,-722.23 1072.34,-711.89 1067.68,-721.4 1074.63,-722.23"/>
<text text-anchor="middle" x="1114.62" y="-740.7" font-family="Arial" font-size="9.00">RequestHandler</text>
<text text-anchor="middle" x="1114.62" y="-730.2" font-family="Arial" font-size="9.00">on_message_send()</text>
</g>
<!-- artist_card -->
<g id="node16" class="node">
<title>artist_card</title>
<polygon fill="#fce4ec" stroke="black" points="1378.38,-668.38 1217.62,-668.38 1217.62,-554.62 1384.38,-554.62 1384.38,-662.38 1378.38,-668.38"/>
<polyline fill="none" stroke="black" points="1378.38,-668.38 1378.38,-662.38"/>
<polyline fill="none" stroke="black" points="1384.38,-662.38 1378.38,-662.38"/>
<text text-anchor="middle" x="1301" y="-656.77" font-family="Arial" font-size="8.00">AgentCard</text>
<text text-anchor="middle" x="1301" y="-638.02" font-family="Arial" font-size="8.00">name: Itinerary Artist</text>
<text text-anchor="middle" x="1301" y="-628.27" font-family="Arial" font-size="8.00">skill_id: travel_visual_story</text>
<text text-anchor="middle" x="1301" y="-618.52" font-family="Arial" font-size="8.00">skill_name: Itinerary Visualization</text>
<text text-anchor="middle" x="1301" y="-599.77" font-family="Arial" font-size="8.00">Capabilities:</text>
<text text-anchor="middle" x="1301" y="-590.02" font-family="Arial" font-size="8.00">• streaming: false</text>
<text text-anchor="middle" x="1301" y="-580.27" font-family="Arial" font-size="8.00">• push_notifications: false</text>
<text text-anchor="middle" x="1301" y="-570.52" font-family="Arial" font-size="8.00">• transport: jsonrpc</text>
<text text-anchor="middle" x="1301" y="-560.77" font-family="Arial" font-size="8.00">• output_modes: text/plain, application/json</text>
</g>
<!-- artist_server&#45;&gt;artist_card -->
<!-- concierge_handler&#45;&gt;concierge_server -->
<g id="edge17" class="edge">
<title>concierge_handler&#45;&gt;concierge_server</title>
<path fill="none" stroke="#388e3c" stroke-dasharray="5,2" d="M150.98,-710.72C159.69,-724.14 169.12,-737.37 179,-749.25 185.75,-757.37 193.22,-765.39 200.99,-773.12"/>
<polygon fill="#388e3c" stroke="#388e3c" points="198.15,-775.24 207.77,-779.7 203.03,-770.22 198.15,-775.24"/>
<text text-anchor="middle" x="240.5" y="-740.7" font-family="Arial" font-size="9.00">A2A Response</text>
<text text-anchor="middle" x="240.5" y="-730.2" font-family="Arial" font-size="9.00">{summary, avg_costs, options}</text>
</g>
<!-- concierge_impl -->
<g id="node9" class="node">
<title>concierge_impl</title>
<path fill="#c8e6c9" stroke="black" d="M225.5,-432.75C225.5,-432.75 68.5,-432.75 68.5,-432.75 62.5,-432.75 56.5,-426.75 56.5,-420.75 56.5,-420.75 56.5,-184.25 56.5,-184.25 56.5,-178.25 62.5,-172.25 68.5,-172.25 68.5,-172.25 225.5,-172.25 225.5,-172.25 231.5,-172.25 237.5,-178.25 237.5,-184.25 237.5,-184.25 237.5,-420.75 237.5,-420.75 237.5,-426.75 231.5,-432.75 225.5,-432.75"/>
<text text-anchor="middle" x="147" y="-415.45" font-family="Arial" font-size="14.00">Travel Concierge</text>
<text text-anchor="middle" x="147" y="-399.7" font-family="Arial" font-size="14.00">Implementation</text>
<text text-anchor="middle" x="147" y="-367.95" font-family="Arial" font-size="14.00">run_langchain_reader()</text>
<text text-anchor="middle" x="147" y="-352.2" font-family="Arial" font-size="14.00">• CSVLoader</text>
<text text-anchor="middle" x="147" y="-336.45" font-family="Arial" font-size="14.00">• ChatOpenAI (gpt&#45;4o&#45;mini)</text>
<text text-anchor="middle" x="147" y="-320.7" font-family="Arial" font-size="14.00">• Calculate avg_costs</text>
<text text-anchor="middle" x="147" y="-304.95" font-family="Arial" font-size="14.00">• Find cheapest options</text>
<text text-anchor="middle" x="147" y="-289.2" font-family="Arial" font-size="14.00">• Generate summary</text>
<text text-anchor="middle" x="147" y="-257.45" font-family="Arial" font-size="14.00">Returns:</text>
<text text-anchor="middle" x="147" y="-241.7" font-family="Arial" font-size="14.00">• summary</text>
<text text-anchor="middle" x="147" y="-225.95" font-family="Arial" font-size="14.00">• avg_costs</text>
<text text-anchor="middle" x="147" y="-210.2" font-family="Arial" font-size="14.00">• cheapest_options</text>
<text text-anchor="middle" x="147" y="-194.45" font-family="Arial" font-size="14.00">• types_breakdown</text>
<text text-anchor="middle" x="147" y="-178.7" font-family="Arial" font-size="14.00">• cities_available</text>
</g>
<!-- concierge_handler&#45;&gt;concierge_impl -->
<g id="edge8" class="edge">
<title>concierge_handler&#45;&gt;concierge_impl</title>
<path fill="none" stroke="#66bb6a" stroke-dasharray="1,5" d="M65.67,-512.52C63.67,-496.04 63.77,-479.13 67.5,-463.25 69.06,-456.62 70.94,-449.95 73.07,-443.3"/>
<polygon fill="#66bb6a" stroke="#66bb6a" points="76.22,-444.89 76.12,-434.3 69.59,-442.64 76.22,-444.89"/>
<text text-anchor="middle" x="116.25" y="-480.95" font-family="Arial" font-size="9.00">asyncio.to_thread()</text>
<text text-anchor="middle" x="116.25" y="-470.45" font-family="Arial" font-size="9.00">run_langchain_reader()</text>
</g>
<!-- committee_handler&#45;&gt;committee_server -->
<g id="edge18" class="edge">
<title>committee_handler&#45;&gt;committee_server</title>
<path fill="none" stroke="#1976d2" stroke-dasharray="5,2" d="M676.4,-710.58C677.07,-724.02 679.82,-737.29 685.75,-749.25 694.35,-766.6 707.84,-781.63 722.81,-794.28"/>
<polygon fill="#1976d2" stroke="#1976d2" points="720.59,-796.99 730.59,-800.51 724.97,-791.53 720.59,-796.99"/>
<text text-anchor="middle" x="734.88" y="-740.7" font-family="Arial" font-size="9.00">A2A Response</text>
<text text-anchor="middle" x="734.88" y="-730.2" font-family="Arial" font-size="9.00">{itinerary, itinerary_json}</text>
</g>
<!-- committee_impl -->
<g id="node12" class="node">
<title>committee_impl</title>
<path fill="#bbdefb" stroke="black" d="M683.25,-445.25C683.25,-445.25 434.75,-445.25 434.75,-445.25 428.75,-445.25 422.75,-439.25 422.75,-433.25 422.75,-433.25 422.75,-171.75 422.75,-171.75 422.75,-165.75 428.75,-159.75 434.75,-159.75 434.75,-159.75 683.25,-159.75 683.25,-159.75 689.25,-159.75 695.25,-165.75 695.25,-171.75 695.25,-171.75 695.25,-433.25 695.25,-433.25 695.25,-439.25 689.25,-445.25 683.25,-445.25"/>
<text text-anchor="middle" x="559" y="-427.95" font-family="Arial" font-size="14.00">Planning Committee</text>
<text text-anchor="middle" x="559" y="-412.2" font-family="Arial" font-size="14.00">Implementation</text>
<text text-anchor="middle" x="559" y="-380.45" font-family="Arial" font-size="14.00">run_crewai_analysis()</text>
<text text-anchor="middle" x="559" y="-364.7" font-family="Arial" font-size="14.00">━━━━━━━━━━━━━━━━━━</text>
<text text-anchor="middle" x="559" y="-344.45" font-family="Arial" font-size="14.00">DUAL AGENT DEBATE</text>
<text text-anchor="middle" x="559" y="-328.7" font-family="Arial" font-size="14.00">━━━━━━━━━━━━━━━━━━</text>
<text text-anchor="middle" x="559" y="-292.45" font-family="Arial" font-size="14.00">• Crew with 2 agents</text>
<text text-anchor="middle" x="559" y="-276.7" font-family="Arial" font-size="14.00">• Sequential process</text>
<text text-anchor="middle" x="559" y="-260.95" font-family="Arial" font-size="14.00">• Negotiate &amp; debate</text>
<text text-anchor="middle" x="559" y="-245.2" font-family="Arial" font-size="14.00">• Reach consensus</text>
<text text-anchor="middle" x="559" y="-213.45" font-family="Arial" font-size="14.00">Returns:</text>
<text text-anchor="middle" x="559" y="-197.7" font-family="Arial" font-size="14.00">• itinerary (markdown)</text>
<text text-anchor="middle" x="559" y="-181.95" font-family="Arial" font-size="14.00">• itinerary_json</text>
<text text-anchor="middle" x="559" y="-166.2" font-family="Arial" font-size="14.00">• task_outputs</text>
</g>
<!-- committee_handler&#45;&gt;committee_impl -->
<g id="edge9" class="edge">
<title>committee_handler&#45;&gt;committee_impl</title>
<path fill="none" stroke="#42a5f5" stroke-dasharray="1,5" d="M615.28,-517.73C613.52,-516.04 611.76,-514.38 610,-512.75 600.42,-503.86 593.33,-506.04 586.75,-494.75 579.81,-482.86 574.39,-469.87 570.17,-456.43"/>
<polygon fill="#42a5f5" stroke="#42a5f5" points="573.59,-455.67 567.45,-447.03 566.86,-457.61 573.59,-455.67"/>
<text text-anchor="middle" x="634.38" y="-486.2" font-family="Arial" font-size="9.00">asyncio.to_thread()</text>
<text text-anchor="middle" x="634.38" y="-475.7" font-family="Arial" font-size="9.00">run_crewai_analysis()</text>
<text text-anchor="middle" x="634.38" y="-465.2" font-family="Arial" font-size="9.00">(Budget vs Experience)</text>
</g>
<!-- artist_handler&#45;&gt;artist_server -->
<g id="edge19" class="edge">
<title>artist_handler&#45;&gt;artist_server</title>
<path fill="none" stroke="#c2185b" stroke-dasharray="5,2" d="M1158.44,-710.71C1160.28,-723.61 1160.17,-736.7 1157,-749.25 1155.53,-755.07 1153.62,-760.92 1151.41,-766.7"/>
<polygon fill="#c2185b" stroke="#c2185b" points="1148.32,-765.03 1147.72,-775.61 1154.78,-767.71 1148.32,-765.03"/>
<text text-anchor="middle" x="1204.96" y="-740.7" font-family="Arial" font-size="9.00">A2A Response</text>
<text text-anchor="middle" x="1204.96" y="-730.2" font-family="Arial" font-size="9.00">{caption, tool_outputs}</text>
</g>
<!-- artist_impl -->
<g id="node13" class="node">
<title>artist_impl</title>
<path fill="#f8bbd0" stroke="black" d="M1237.25,-409.12C1237.25,-409.12 1084.75,-409.12 1084.75,-409.12 1078.75,-409.12 1072.75,-403.12 1072.75,-397.12 1072.75,-397.12 1072.75,-207.88 1072.75,-207.88 1072.75,-201.88 1078.75,-195.88 1084.75,-195.88 1084.75,-195.88 1237.25,-195.88 1237.25,-195.88 1243.25,-195.88 1249.25,-201.88 1249.25,-207.88 1249.25,-207.88 1249.25,-397.12 1249.25,-397.12 1249.25,-403.12 1243.25,-409.12 1237.25,-409.12"/>
<text text-anchor="middle" x="1161" y="-391.82" font-family="Arial" font-size="14.00">Itinerary Artist</text>
<text text-anchor="middle" x="1161" y="-376.07" font-family="Arial" font-size="14.00">Implementation</text>
<text text-anchor="middle" x="1161" y="-344.32" font-family="Arial" font-size="14.00">run_autogen_visualizer()</text>
<text text-anchor="middle" x="1161" y="-328.57" font-family="Arial" font-size="14.00">• AssistantAgent</text>
<text text-anchor="middle" x="1161" y="-312.82" font-family="Arial" font-size="14.00">• OpenAI Client (gpt&#45;4o)</text>
<text text-anchor="middle" x="1161" y="-297.07" font-family="Arial" font-size="14.00">• render_travel_chart() tool</text>
<text text-anchor="middle" x="1161" y="-281.32" font-family="Arial" font-size="14.00">• Plotly cost charts</text>
<text text-anchor="middle" x="1161" y="-249.57" font-family="Arial" font-size="14.00">Returns:</text>
<text text-anchor="middle" x="1161" y="-233.82" font-family="Arial" font-size="14.00">• caption</text>
<text text-anchor="middle" x="1161" y="-218.07" font-family="Arial" font-size="14.00">• tool_outputs</text>
<text text-anchor="middle" x="1161" y="-202.32" font-family="Arial" font-size="14.00">• artifacts_directory</text>
</g>
<!-- artist_handler&#45;&gt;artist_impl -->
<g id="edge10" class="edge">
<title>artist_handler&#45;&gt;artist_impl</title>
<path fill="none" stroke="#ec407a" stroke-dasharray="1,5" d="M1079.72,-512.6C1077.52,-496.11 1077.49,-479.18 1081.25,-463.25 1084.68,-448.68 1089.66,-433.93 1095.47,-419.58"/>
<polygon fill="#ec407a" stroke="#ec407a" points="1098.6,-421.17 1099.26,-410.6 1092.15,-418.45 1098.6,-421.17"/>
<text text-anchor="middle" x="1132.62" y="-480.95" font-family="Arial" font-size="9.00">asyncio.to_thread()</text>
<text text-anchor="middle" x="1132.62" y="-470.45" font-family="Arial" font-size="9.00">run_autogen_visualizer()</text>
</g>
<!-- concierge_impl&#45;&gt;concierge_handler -->
<g id="edge14" class="edge">
<title>concierge_impl&#45;&gt;concierge_handler</title>
<path fill="none" stroke="#66bb6a" stroke-dasharray="1,5" d="M171.61,-433.15C172.02,-453.96 170.28,-475.1 165,-494.75 164.38,-497.07 163.69,-499.39 162.96,-501.71"/>
<polygon fill="#66bb6a" stroke="#66bb6a" points="159.67,-500.52 159.65,-511.11 166.27,-502.84 159.67,-500.52"/>
<text text-anchor="middle" x="209.46" y="-475.7" font-family="Arial" font-size="9.00">Message response</text>
</g>
<!-- budget_watchdog -->
<g id="node10" class="node">
<title>budget_watchdog</title>
<path fill="#e1f5fe" stroke="black" d="M583.8,-922.25C583.8,-922.25 478.2,-922.25 478.2,-922.25 472.2,-922.25 466.2,-916.25 466.2,-910.25 466.2,-910.25 466.2,-779.25 466.2,-779.25 466.2,-773.25 472.2,-767.25 478.2,-767.25 478.2,-767.25 583.8,-767.25 583.8,-767.25 589.8,-767.25 595.8,-773.25 595.8,-779.25 595.8,-779.25 595.8,-910.25 595.8,-910.25 595.8,-916.25 589.8,-922.25 583.8,-922.25"/>
<text text-anchor="middle" x="531" y="-909.7" font-family="Arial" font-size="9.00">Budget Watchdog</text>
<text text-anchor="middle" x="531" y="-899.2" font-family="Arial" font-size="9.00">Agent 💰</text>
<text text-anchor="middle" x="531" y="-877.2" font-family="Arial" font-size="9.00">Role: Frugal Accountant</text>
<text text-anchor="middle" x="531" y="-866.7" font-family="Arial" font-size="9.00">Goal: Minimize costs</text>
<text text-anchor="middle" x="531" y="-846.2" font-family="Arial" font-size="9.00">Argues for:</text>
<text text-anchor="middle" x="531" y="-835.7" font-family="Arial" font-size="9.00">• Budget flights</text>
<text text-anchor="middle" x="531" y="-825.2" font-family="Arial" font-size="9.00">• Cheap hotels</text>
<text text-anchor="middle" x="531" y="-814.7" font-family="Arial" font-size="9.00">• Free activities</text>
<text text-anchor="middle" x="531" y="-794.2" font-family="Arial" font-size="9.00">Backstory:</text>
<text text-anchor="middle" x="531" y="-783.7" font-family="Arial" font-size="9.00">&#39;Strict accountant who</text>
<text text-anchor="middle" x="531" y="-773.2" font-family="Arial" font-size="9.00">hates wasting money&#39;</text>
</g>
<!-- experience_guru -->
<g id="node11" class="node">
<title>experience_guru</title>
<path fill="#b3e5fc" stroke="black" d="M585.75,-689C585.75,-689 478.25,-689 478.25,-689 472.25,-689 466.25,-683 466.25,-677 466.25,-677 466.25,-546 466.25,-546 466.25,-540 472.25,-534 478.25,-534 478.25,-534 585.75,-534 585.75,-534 591.75,-534 597.75,-540 597.75,-546 597.75,-546 597.75,-677 597.75,-677 597.75,-683 591.75,-689 585.75,-689"/>
<text text-anchor="middle" x="532" y="-676.45" font-family="Arial" font-size="9.00">Experience Guru</text>
<text text-anchor="middle" x="532" y="-665.95" font-family="Arial" font-size="9.00">Agent ✨</text>
<text text-anchor="middle" x="532" y="-643.95" font-family="Arial" font-size="9.00">Role: Luxury Influencer</text>
<text text-anchor="middle" x="532" y="-633.45" font-family="Arial" font-size="9.00">Goal: Maximize experiences</text>
<text text-anchor="middle" x="532" y="-612.95" font-family="Arial" font-size="9.00">Argues for:</text>
<text text-anchor="middle" x="532" y="-602.45" font-family="Arial" font-size="9.00">• Direct flights</text>
<text text-anchor="middle" x="532" y="-591.95" font-family="Arial" font-size="9.00">• Nice hotels</text>
<text text-anchor="middle" x="532" y="-581.45" font-family="Arial" font-size="9.00">• Premium tours</text>
<text text-anchor="middle" x="532" y="-560.95" font-family="Arial" font-size="9.00">Backstory:</text>
<text text-anchor="middle" x="532" y="-550.45" font-family="Arial" font-size="9.00">&#39;Life is short,</text>
<text text-anchor="middle" x="532" y="-539.95" font-family="Arial" font-size="9.00">experiences matter&#39;</text>
</g>
<!-- budget_watchdog&#45;&gt;experience_guru -->
<g id="edge13" class="edge">
<title>budget_watchdog&#45;&gt;experience_guru</title>
<path fill="none" stroke="#d32f2f" stroke-width="2" d="M530.92,-754.21C530.94,-745.44 530.96,-736.67 531,-728.25 531.04,-719.81 531.09,-711.03 531.15,-702.24"/>
<polygon fill="#d32f2f" stroke="#d32f2f" stroke-width="2" points="527.42,-753.99 530.91,-763.99 534.42,-754 527.42,-753.99"/>
<polygon fill="#d32f2f" stroke="#d32f2f" stroke-width="2" points="534.65,-702.45 531.22,-692.42 527.65,-702.39 534.65,-702.45"/>
<text text-anchor="middle" x="556.12" y="-740.7" font-family="Arial" font-size="9.00">DEBATE &amp;</text>
<text text-anchor="middle" x="556.12" y="-730.2" font-family="Arial" font-size="9.00">NEGOTIATE</text>
</g>
<!-- budget_watchdog&#45;&gt;committee_impl -->
<g id="edge11" class="edge">
<title>budget_watchdog&#45;&gt;committee_impl</title>
<path fill="none" stroke="#0277bd" stroke-dasharray="5,2" d="M458.29,-778.11C441.02,-758.2 424.95,-734.98 415.75,-710.25 385.15,-627.98 389.8,-596.6 415.75,-512.75 421.76,-493.32 430.27,-474.09 440.18,-455.62"/>
<polygon fill="#0277bd" stroke="#0277bd" points="455.46,-780.19 464.74,-785.3 460.67,-775.52 455.46,-780.19"/>
<polygon fill="#0277bd" stroke="#0277bd" points="443.13,-457.5 444.92,-447.06 437.01,-454.11 443.13,-457.5"/>
<text text-anchor="middle" x="436.38" y="-613.45" font-family="Arial" font-size="9.00">Advocate</text>
<text text-anchor="middle" x="436.38" y="-602.95" font-family="Arial" font-size="9.00">for budget</text>
</g>
<!-- experience_guru&#45;&gt;committee_impl -->
<g id="edge12" class="edge">
<title>experience_guru&#45;&gt;committee_impl</title>
<path fill="none" stroke="#01579b" stroke-dasharray="5,2" d="M526.74,-522.32C526.34,-513.01 525.99,-503.69 525.75,-494.75 525.37,-480.76 524.32,-477.18 525.75,-463.25 525.96,-461.17 526.19,-459.09 526.44,-456.99"/>
<polygon fill="#01579b" stroke="#01579b" points="523.24,-522.29 527.2,-532.12 530.23,-521.97 523.24,-522.29"/>
<polygon fill="#01579b" stroke="#01579b" points="529.89,-457.54 527.68,-447.18 522.95,-456.66 529.89,-457.54"/>
<text text-anchor="middle" x="544.88" y="-480.95" font-family="Arial" font-size="9.00">Advocate</text>
<text text-anchor="middle" x="544.88" y="-470.45" font-family="Arial" font-size="9.00">for luxury</text>
</g>
<!-- committee_impl&#45;&gt;committee_handler -->
<g id="edge15" class="edge">
<title>committee_impl&#45;&gt;committee_handler</title>
<path fill="none" stroke="#42a5f5" stroke-dasharray="1,5" d="M673.93,-445.35C676.88,-451.27 679.58,-457.24 682,-463.25 686.83,-475.27 690.38,-488.27 692.97,-501.39"/>
<polygon fill="#42a5f5" stroke="#42a5f5" points="689.47,-501.69 694.66,-510.93 696.36,-500.47 689.47,-501.69"/>
<text text-anchor="middle" x="735.29" y="-480.95" font-family="Arial" font-size="9.00">Message response</text>
<text text-anchor="middle" x="735.29" y="-470.45" font-family="Arial" font-size="9.00">(Consensus itinerary)</text>
</g>
<!-- artist_impl&#45;&gt;artist_handler -->
<g id="edge16" class="edge">
<title>artist_impl&#45;&gt;artist_handler</title>
<path fill="none" stroke="#ec407a" stroke-dasharray="1,5" d="M1188.36,-409.35C1191.66,-437.44 1191.59,-467.53 1184,-494.75 1183.36,-497.05 1182.66,-499.34 1181.91,-501.64"/>
<polygon fill="#ec407a" stroke="#ec407a" points="1178.66,-500.32 1178.53,-510.91 1185.24,-502.71 1178.66,-500.32"/>
<text text-anchor="middle" x="1228.5" y="-475.7" font-family="Arial" font-size="9.00">Message response</text>
</g>
<!-- artifacts -->
<g id="node17" class="node">
<title>artifacts</title>
<polygon fill="#ffe0b2" stroke="black" points="1232,-102.75 1229,-106.75 1208,-106.75 1205,-102.75 1090,-102.75 1090,0 1232,0 1232,-102.75"/>
<text text-anchor="middle" x="1161" y="-85.45" font-family="Arial" font-size="14.00">Artifacts Directory</text>
<text text-anchor="middle" x="1161" y="-69.7" font-family="Arial" font-size="14.00">artifacts/autogen/</text>
<text text-anchor="middle" x="1161" y="-37.95" font-family="Arial" font-size="14.00">• cost_by_name.json</text>
<text text-anchor="middle" x="1161" y="-22.2" font-family="Arial" font-size="14.00">• cost_by_type.json</text>
<text text-anchor="middle" x="1161" y="-6.45" font-family="Arial" font-size="14.00">(Plotly charts)</text>
</g>
<!-- artist_impl&#45;&gt;artifacts -->
<g id="edge23" class="edge">
<title>artist_impl&#45;&gt;artifacts</title>
<path fill="none" stroke="#ff9800" d="M1161,-195.49C1161,-167.82 1161,-138.9 1161,-114.37"/>
<polygon fill="#ff9800" stroke="#ff9800" points="1164.5,-114.57 1161,-104.57 1157.5,-114.57 1164.5,-114.57"/>
<text text-anchor="middle" x="1184.25" y="-133.2" font-family="Arial" font-size="9.00">write charts</text>
<text text-anchor="middle" x="1184.25" y="-122.7" font-family="Arial" font-size="9.00">(JSON)</text>
</g>
<!-- legend_http -->
<g id="node18" class="node">
<title>legend_http</title>
<polygon fill="#e8eaf6" stroke="black" points="977.38,-1413.12 858.62,-1413.12 858.62,-1373.62 983.38,-1373.62 983.38,-1407.12 977.38,-1413.12"/>
<polyline fill="none" stroke="black" points="977.38,-1413.12 977.38,-1407.12"/>
<polyline fill="none" stroke="black" points="983.38,-1407.12 977.38,-1407.12"/>
<text text-anchor="middle" x="921" y="-1395.83" font-family="Arial" font-size="14.00">HTTP/JSON&#45;RPC</text>
<text text-anchor="middle" x="921" y="-1380.08" font-family="Arial" font-size="14.00">(Thick solid)</text>
</g>
<!-- legend_handler -->
<g id="node19" class="node">
<title>legend_handler</title>
<polygon fill="#f3e5f5" stroke="black" points="1086.12,-1413.12 1001.88,-1413.12 1001.88,-1373.62 1092.12,-1373.62 1092.12,-1407.12 1086.12,-1413.12"/>
<polyline fill="none" stroke="black" points="1086.12,-1413.12 1086.12,-1407.12"/>
<polyline fill="none" stroke="black" points="1092.12,-1407.12 1086.12,-1407.12"/>
<text text-anchor="middle" x="1047" y="-1395.83" font-family="Arial" font-size="14.00">Handler Call</text>
<text text-anchor="middle" x="1047" y="-1380.08" font-family="Arial" font-size="14.00">(Dashed)</text>
</g>
<!-- legend_async -->
<g id="node20" class="node">
<title>legend_async</title>
<polygon fill="#fff9c4" stroke="black" points="1199.75,-1413.12 1110.25,-1413.12 1110.25,-1373.62 1205.75,-1373.62 1205.75,-1407.12 1199.75,-1413.12"/>
<polyline fill="none" stroke="black" points="1199.75,-1413.12 1199.75,-1407.12"/>
<polyline fill="none" stroke="black" points="1205.75,-1407.12 1199.75,-1407.12"/>
<text text-anchor="middle" x="1158" y="-1395.83" font-family="Arial" font-size="14.00">Async Bridge</text>
<text text-anchor="middle" x="1158" y="-1380.08" font-family="Arial" font-size="14.00">(Dotted)</text>
</g>
<!-- legend_debate -->
<g id="node21" class="node">
<title>legend_debate</title>
<polygon fill="#ffebee" stroke="black" points="1338.5,-1413.12 1223.5,-1413.12 1223.5,-1373.62 1344.5,-1373.62 1344.5,-1407.12 1338.5,-1413.12"/>
<polyline fill="none" stroke="black" points="1338.5,-1413.12 1338.5,-1407.12"/>
<polyline fill="none" stroke="black" points="1344.5,-1407.12 1338.5,-1407.12"/>
<text text-anchor="middle" x="1284" y="-1395.83" font-family="Arial" font-size="14.00">Debate/Negotiate</text>
<text text-anchor="middle" x="1284" y="-1380.08" font-family="Arial" font-size="14.00">(Bold red)</text>
</g>
</g>
</svg>
